# xmcd CD database file
#
# Track frame offsets:
#	150
#	13955
#	27118
#	40639
#	54398
#	69472
#	83206
#	96127
#	105069
#	119228
#	132926
#	146817
#	159226
#	172299
#	184725
#	198904
#	213097
#	227536
#	242859
#	256844
#	270240
#	284847
#	298835
#
# Disc length: 4151 seconds
#
# Revision: 0
# Processed by: cddbd v1.5PL3 Copyright (c) Steve Scherf et al.
# Submitted via: CDex 1.50beta10
#
DISCID=4c103517
DTITLE=Charlie Parker-in a soulful mood - Charlie Parker-in a soulful mood
DYEAR=2004
DGENRE=Jazz
TTITLE0=MOOSE THE MOOCHE
TTITLE1=YARDBIRD SUITE
TTITLE2=ORNITHOLOGY
TTITLE3=A NIGHT IN TUNISIA
TTITLE4=LOVERMAN
TTITLE5=THE GYPSY
TTITLE6=BIRD'S NEST
TTITLE7=NOT BLUES
TTITLE8=COOL BLUES
TTITLE9=RELAXIN' AT CAMARILLO
TTITLE10=CHEERS
TTITLE11=CARVIN' THE BIRD
TTITLE12=STUPENDOUS
TTITLE13=BONGO BOP
TTITLE14=DEWEY SQUARE
TTITLE15=ALL THE THINGS YOU ARE
TTITLE16=BIRD OF PARADISE
TTITLE17=EMBRACEABLE YOU
TTITLE18=KLACT-OVEESEDS-TENE
TTITLE19=SCRAPPLE FROM THE APPLE
TTITLE20=MY OLD FLAME
TTITLE21=OUT OF HOWHERE
TTITLE22=DON'T BLAME ME
EXTD=YEAR: 2004
EXTT0=
EXTT1=
EXTT2=
EXTT3=
EXTT4=
EXTT5=
EXTT6=
EXTT7=
EXTT8=
EXTT9=
EXTT10=
EXTT11=
EXTT12=
EXTT13=
EXTT14=
EXTT15=
EXTT16=
EXTT17=
EXTT18=
EXTT19=
EXTT20=
EXTT21=
EXTT22=
PLAYORDER=
